<?xml version="1.0" encoding="UTF-8" standalone="no"?>
<!DOCTYPE svg PUBLIC "-//W3C//DTD SVG 1.1//EN" "http://www.w3.org/Graphics/SVG/1.1/DTD/svg11.dtd">
<svg width="100%" height="100%" viewBox="0 0 3600 720" version="1.1" xmlns="http://www.w3.org/2000/svg" xmlns:xlink="http://www.w3.org/1999/xlink" xml:space="preserve" xmlns:serif="http://www.serif.com/" style="fill-rule:evenodd;clip-rule:evenodd;stroke-linejoin:round;stroke-miterlimit:2;">
    <g transform="matrix(0.24,0,0,0.24,0,0)">
        <g transform="matrix(9.77003,0,0,18.7567,-1394.94,-4274.96)">
            <ellipse cx="296.309" cy="307.888" rx="153.531" ry="79.971" style="fill:white;"/>
        </g>
        <g transform="matrix(3.22882,0,0,3.69009,-2934.08,-2419.09)">
            <ellipse cx="1373.28" cy="1062.06" rx="449.081" ry="392.945" style="fill:rgb(210,210,210);"/>
        </g>
        <g transform="matrix(1.00953,0,0,1.27585,144.404,-119.551)">
            <ellipse cx="1342.8" cy="1269.39" rx="495.279" ry="391.897" style="fill:rgb(235,235,235);"/>
        </g>
        <g transform="matrix(1.23098,0,0,1.32161,-182.546,1720.53)">
            <ellipse cx="1366.84" cy="589.79" rx="203.091" ry="189.163" style="fill:rgb(235,235,235);"/>
        </g>
        <g transform="matrix(2.24067,0,0,2.24067,-5365.12,-431.005)">
            <path d="M3957.02,1237.38L3957.02,709.417L4113.69,709.417L4113.69,868.236L4588,868.236C4613.04,868.236 4630.03,860.366 4638.98,844.627C4647.92,828.889 4652.39,808.857 4652.39,784.534L4652.39,708.344C4653.82,655.404 4633.79,628.934 4592.3,628.934L3957.02,628.934L3957.02,486.212L4638.44,486.212C4665.62,486.212 4692.27,492.293 4718.38,504.454C4744.5,516.616 4765.96,534.322 4782.77,557.573C4799.58,580.823 4808.35,607.472 4809.06,637.519L4809.06,845.701C4807.63,892.202 4793.68,931.37 4767.21,963.205C4740.74,995.04 4705.33,1010.96 4660.97,1010.96L4809.06,1237.38L4629.85,1237.38L4482.84,1010.96L4113.69,1010.96L4113.69,1237.38L3957.02,1237.38Z" style="fill:rgb(210,210,210);fill-rule:nonzero;stroke:white;stroke-width:14.88px;"/>
            <path d="M4873.45,486.212L5682.57,486.212L5682.57,628.934L4873.45,628.934L4873.45,486.212ZM5031.19,709.417L5031.19,783.461L5283.37,783.461C5379.95,783.461 5474.74,783.103 5567.74,782.388L5567.74,926.183L5031.19,926.183L5031.19,1094.66L5682.57,1094.66L5682.57,1237.38L4873.45,1237.38L4873.45,709.417L5031.19,709.417Z" style="fill:rgb(210,210,210);fill-rule:nonzero;stroke:white;stroke-width:14.88px;"/>
            <path d="M5746.95,709.417L5903.62,709.417L5903.62,1094.66L6377.94,1094.66C6402.97,1094.66 6419.97,1086.79 6428.91,1071.05C6437.85,1055.31 6442.32,1035.28 6442.32,1010.96L6442.32,708.344C6443.75,655.404 6423.72,628.934 6382.23,628.934L5746.95,628.934L5746.95,486.212L6428.37,486.212C6455.56,486.212 6482.2,492.293 6508.32,504.454C6534.43,516.616 6555.89,534.322 6572.7,557.573C6589.52,580.823 6598.28,607.472 6598.99,637.519L6598.99,1058.17C6598.28,1091.8 6590.23,1122.2 6574.85,1149.39C6559.47,1176.57 6538.54,1198.04 6512.07,1213.77C6485.6,1229.51 6455.56,1237.38 6421.93,1237.38L5746.95,1237.38L5746.95,709.417Z" style="fill:rgb(210,210,210);fill-rule:nonzero;stroke:white;stroke-width:14.88px;"/>
            <rect x="6663.38" y="486.212" width="157.746" height="751.171" style="fill:rgb(210,210,210);fill-rule:nonzero;stroke:white;stroke-width:14.88px;"/>
            <path d="M8016.56,486.212L8016.56,1237.38L7859.89,1237.38L7859.89,643.958L7540.1,1237.38L7361.97,1237.38L7042.18,643.958L7042.18,1237.38L6885.51,1237.38L6885.51,486.212L7135.54,486.212L7451.04,1072.12L7766.53,486.212L8016.56,486.212Z" style="fill:rgb(210,210,210);fill-rule:nonzero;stroke:white;stroke-width:14.88px;"/>
            <path d="M8236.55,1237.38C8194.34,1237.38 8158.03,1225.76 8127.63,1202.51C8097.22,1179.26 8081.66,1145.1 8080.95,1100.03L8080.95,709.417L8237.62,709.417L8237.62,1035.64C8239.76,1057.82 8244.77,1072.84 8252.64,1080.71C8260.51,1088.58 8271.96,1093.23 8286.98,1094.66L8726.95,1094.66C8741.26,1094.66 8751.99,1093.41 8759.15,1090.9C8766.3,1088.4 8772.02,1082.32 8776.32,1072.66C8780.61,1063 8782.75,1047.44 8782.75,1025.98L8782.75,702.978C8782.75,680.085 8780.79,663.273 8776.85,652.542C8772.92,641.811 8767.19,635.194 8759.68,632.69C8752.17,630.186 8741.26,628.934 8726.95,628.934L8080.95,628.934C8083.81,585.295 8100.26,550.598 8130.31,524.843C8160.36,499.089 8195.41,486.212 8235.47,486.212L8781.68,486.212C8823.89,486.212 8859.48,496.943 8888.45,518.405C8917.43,539.867 8931.92,576.352 8931.92,627.861L8931.92,1095.73C8931.92,1147.24 8917.43,1183.73 8888.45,1205.19C8859.48,1226.65 8823.89,1237.38 8781.68,1237.38L8236.55,1237.38Z" style="fill:rgb(210,210,210);fill-rule:nonzero;stroke:white;stroke-width:14.88px;"/>
        </g>
    </g>
</svg>
